<svg width="48" height="48" viewBox="0 0 48 48" fill="none" xmlns="http://www.w3.org/2000/svg">
<g clip-path="url(#clip0_130_5138)">
<path d="M39.4146 47.1813C29.1709 48.2742 18.84 48.2742 8.59637 47.1813C6.60714 46.9713 4.75003 46.0857 3.33462 44.6723C1.91921 43.2589 1.03104 41.403 0.818187 39.4141C-0.274682 29.1704 -0.274682 18.8395 0.818187 8.59588C1.02825 6.60666 1.91381 4.74954 3.32724 3.33413C4.74066 1.91872 6.59653 1.03056 8.58546 0.817699C18.8291 -0.27517 29.16 -0.27517 39.4036 0.817699C41.3929 1.02776 43.25 1.91332 44.6654 3.32675C46.0808 4.74017 46.969 6.59604 47.1818 8.58497C48.2747 18.8286 48.2747 29.1595 47.1818 39.4032C46.9718 41.3924 46.0862 43.2495 44.6728 44.6649C43.2594 46.0803 41.4035 46.9685 39.4146 47.1813Z" fill="#E60000"/>
<path d="M38.299 16.7836C37.699 14.9373 35.7136 13.8191 33.8863 13.5627C27.3139 12.8645 20.686 12.8645 14.1136 13.5627C12.2863 13.8191 10.2954 14.9263 9.70085 16.7836C8.76541 21.55 8.76541 26.4527 9.70085 31.2191C10.3008 33.0627 12.2863 34.1836 14.1136 34.44C20.686 35.1382 27.3139 35.1382 33.8863 34.44C35.7136 34.1836 37.7045 33.0763 38.299 31.2191C39.2345 26.4527 39.2345 21.55 38.299 16.7836ZM20.4108 29.7491V18.2509L29.7708 24C26.6154 25.9391 23.5527 27.8182 20.4108 29.7491Z" fill="white"/>
</g>
<defs>
<clipPath id="clip0_130_5138">
<rect width="48" height="48" fill="white"/>
</clipPath>
</defs>
</svg>
