<svg width="48" height="48" viewBox="0 0 48 48" fill="none" xmlns="http://www.w3.org/2000/svg">
<rect width="48" height="48" rx="6" fill="black"/>
<path d="M29.3342 20.6846C31.2377 22.0501 33.5695 22.8535 36.088 22.8535V17.9899C35.6114 17.99 35.136 17.9402 34.6697 17.841V21.6694C32.1514 21.6694 29.8198 20.8659 27.9159 19.5005V29.4257C27.9159 34.3908 23.9052 38.4155 18.958 38.4155C17.1121 38.4155 15.3964 37.8555 13.9712 36.895C15.5979 38.5642 17.8664 39.5996 20.376 39.5996C25.3235 39.5996 29.3344 35.5749 29.3344 30.6096V20.6846H29.3342ZM31.0839 15.7778C30.1111 14.7113 29.4724 13.3329 29.3342 11.8092V11.1836H27.9901C28.3284 13.1203 29.4824 14.775 31.0839 15.7778ZM17.1003 33.0849C16.5568 32.3698 16.2631 31.4949 16.2644 30.5954C16.2644 28.3245 18.0988 26.4833 20.3621 26.4833C20.7839 26.4832 21.2031 26.548 21.6051 26.676V21.7037C21.1354 21.6391 20.6613 21.6117 20.1874 21.6217V25.4919C19.7851 25.3639 19.3656 25.2989 18.9437 25.2993C16.6805 25.2993 14.8461 27.1404 14.8461 29.4115C14.8461 31.0174 15.7631 32.4077 17.1003 33.0849Z" fill="#FF004F"/>
<path d="M27.9162 19.5004C29.8202 20.8658 32.1517 21.6693 34.67 21.6693V17.8409C33.2643 17.5404 32.0199 16.8032 31.0843 15.7778C29.4827 14.7748 28.3288 13.1202 27.9905 11.1836H24.46V30.6094C24.452 32.8741 22.6206 34.7078 20.3622 34.7078C19.0314 34.7078 17.8491 34.0711 17.1003 33.0849C15.7632 32.4077 14.8463 31.0173 14.8463 29.4116C14.8463 27.1407 16.6807 25.2994 18.9439 25.2994C19.3775 25.2994 19.7955 25.3672 20.1875 25.492V21.6218C15.3273 21.7226 11.4185 25.708 11.4185 30.6095C11.4185 33.0563 12.3918 35.2744 13.9717 36.8951C15.3969 37.8555 17.1126 38.4157 18.9585 38.4157C23.9057 38.4157 27.9163 34.3907 27.9163 29.4257V19.5004H27.9162Z" fill="white"/>
<path d="M34.6698 17.8413V16.8061C33.4022 16.8081 32.1595 16.4518 31.084 15.7781C32.0361 16.8241 33.2897 17.5454 34.6698 17.8413ZM27.9903 11.184C27.958 10.9989 27.9332 10.8126 27.916 10.6256V10H23.0413V29.426C23.0335 31.6904 21.2023 33.5241 18.9437 33.5241C18.2806 33.5241 17.6545 33.3661 17.1001 33.0854C17.8489 34.0715 19.0312 34.7081 20.362 34.7081C22.6202 34.7081 24.4519 32.8745 24.4597 30.6099V11.184H27.9903ZM20.1875 21.6222V20.5202C19.7802 20.4643 19.3695 20.4363 18.9584 20.4365C14.0107 20.4364 10 24.4613 10 29.426C10 32.5386 11.5763 35.2817 13.9715 36.8953C12.3917 35.2747 11.4183 33.0565 11.4183 30.6098C11.4183 25.7084 15.3271 21.723 20.1875 21.6222Z" fill="#00F2EA"/>
</svg>
